<svg width="13" height="13" viewBox="0 0 13 13" fill="none" xmlns="http://www.w3.org/2000/svg">
<path d="M2.51333 8.27125V10.8821C2.51476 11.0133 2.56789 11.1387 2.66119 11.231C2.75449 11.3232 2.88043 11.375 3.01167 11.375H6.05583V8.27125H2.51333ZM6.94417 11.375H9.98833C10.1196 11.375 10.2455 11.3232 10.3388 11.231C10.4321 11.1387 10.4852 11.0133 10.4867 10.8821V8.27125H6.94417V11.375ZM10.8875 3.84042H9.89083C9.99292 3.63308 10.0466 3.40527 10.0479 3.17417C10.0465 2.7628 9.88207 2.36878 9.59068 2.07841C9.29929 1.78804 8.9047 1.625 8.49333 1.625C8.0636 1.64538 7.64839 1.78691 7.29567 2.03324C6.94295 2.27956 6.66711 2.62064 6.5 3.01708C6.33289 2.62064 6.05705 2.27956 5.70433 2.03324C5.35161 1.78691 4.9364 1.64538 4.50667 1.625C4.0953 1.625 3.70071 1.78804 3.40932 2.07841C3.11794 2.36878 2.95352 2.7628 2.95208 3.17417C2.95337 3.40527 3.00708 3.63308 3.10917 3.84042H2.1125C1.84167 3.84042 1.625 4.16 1.625 4.55V6.67875C1.625 7.06875 1.84167 7.38833 2.1125 7.38833H6.05583V3.84042H6.94417V7.38833H10.8875C11.1583 7.38833 11.375 7.06875 11.375 6.67875V4.55C11.375 4.16 11.1583 3.84042 10.8875 3.84042ZM4.50667 3.84042C4.41449 3.84875 4.32159 3.83779 4.23388 3.80824C4.14618 3.77868 4.06559 3.73117 3.99726 3.66875C3.92893 3.60632 3.87436 3.53034 3.83702 3.44565C3.79969 3.36096 3.7804 3.26943 3.7804 3.17687C3.7804 3.08432 3.79969 2.99279 3.83702 2.9081C3.87436 2.82341 3.92893 2.74743 3.99726 2.685C4.06559 2.62258 4.14618 2.57507 4.23388 2.54551C4.32159 2.51596 4.41449 2.505 4.50667 2.51333C5.265 2.51333 5.69292 3.29333 5.90417 3.84042H4.50667ZM8.49333 3.84042H7.09583C7.30708 3.29875 7.735 2.51333 8.49333 2.51333C8.58551 2.505 8.67841 2.51596 8.76612 2.54551C8.85382 2.57507 8.93441 2.62258 9.00274 2.685C9.07107 2.74743 9.12564 2.82341 9.16298 2.9081C9.20031 2.99279 9.2196 3.08432 9.2196 3.17687C9.2196 3.26943 9.20031 3.36096 9.16298 3.44565C9.12564 3.53034 9.07107 3.60632 9.00274 3.66875C8.93441 3.73117 8.85382 3.77868 8.76612 3.80824C8.67841 3.83779 8.58551 3.84875 8.49333 3.84042Z" fill="#C4B5FD"/>
</svg>
